<?xml version="1.0" encoding="iso-8859-1"?>
<!-- Generator: Adobe Illustrator 19.0.0, SVG Export Plug-In . SVG Version: 6.00 Build 0)  -->
<svg version="1.1" id="Layer_1" xmlns="http://www.w3.org/2000/svg" xmlns:xlink="http://www.w3.org/1999/xlink" x="0px" y="0px"
	 viewBox="0 0 474.854 474.854" style="enable-background:new 0 0 474.854 474.854;" xml:space="preserve">
<g>
	<g>
		<path d="M153.654,277.422c-0.92-4.32-5.176-7.144-9.496-6.152c-10.024,2.088-23.584-8.808-31.152-16.352
			c7.36-10.648,12.136-24.136,11.424-40.992c-0.176-4.416-3.824-7.832-8.328-7.656c-4.416,0.184-7.84,3.912-7.656,8.328
			c1.568,37.184-30.096,51.176-42.688,55.256c-5.848-8.976-11.952-23.96-12.616-41.24c-1.016-17.632,3.832-33.928,8.816-43.536
			c3.104-4.32,2.776-8.912,2.592-11.448c-0.032-0.448-0.088-0.88-0.048-1.704c0.024-2.52,0.104-4.736,0.264-6.624
			c0.256-3.4,0.552-5.4,0.584-5.56c0.68-4.36-2.288-8.44-6.648-9.136c-4.344-0.736-8.456,2.272-9.16,6.616
			c0,0-0.408,2.496-0.728,6.8c-0.176,2.144-0.28,4.76-0.296,7.336c-0.064,1.088-0.008,2.232,0.072,3.424
			c0.032,0.416,0.072,0.976,0.072,1.352c-0.192,0.272-0.368,0.56-0.528,0.856c-7.928,14.84-12.032,34.488-10.992,52.408
			c0.688,18.08,7.016,37.712,16.528,51.264l0.64,0.88l-0.12,3.016c-0.016,3.04,0.032,5.688,0.192,7.632
			c0.24,4.496,0.656,7.04,0.656,7.04c0.64,3.928,4.032,6.728,7.888,6.728c0.416,0,0.832-0.04,1.256-0.104
			c4.344-0.688,7.328-4.76,6.664-9.112c-0.032-0.2-0.312-2.128-0.496-5.624c-0.136-1.68-0.168-3.72-0.152-5.832
			c9.912-3.056,21.96-8.936,32.224-18.272c8.128,8.056,23.248,20.528,39.096,20.528c1.984,0,3.984-0.192,5.976-0.624
			C151.814,286.006,154.574,281.75,153.654,277.422z"/>
	</g>
</g>
<g>
	<g>
		<path d="M71.118,86.55c-2.864-0.616-5.84,0.416-7.744,2.648c-2.272,2.664-4.944,17.784-3.704,21.008
			c1.04,2.744,3.504,4.704,6.408,5.096c0.36,0.048,0.72,0.072,1.08,0.072c3.944,0,7.376-2.912,7.92-6.928
			c0.048-0.384,0.072-0.768,0.072-1.144c0.248-1.944,1.376-8.2,1.824-10.12c0.136-0.368,0.248-0.76,0.336-1.168
			C78.214,91.694,75.438,87.454,71.118,86.55z"/>
	</g>
</g>
<g>
	<g>
		<path d="M420.622,281.534c11.144-15.848,17.248-36.104,17.248-57.384c0-17.2-4-33.768-11.592-48.064
			c0.056-1.232,0.104-2.48,0.104-3.744c0-16.28-3.576-32.064-10.368-45.792c0.192-2.6,0.304-5.224,0.304-7.896
			c0.008-40.664-22.272-75.448-53.456-84.384c-12.984-21.52-33.312-34.264-54.96-34.264c-6.56,0-13.064,1.168-19.376,3.464
			c-19.168-6.92-41.768-2.416-55.576,8.92c-0.152-2.8-1.648-5.456-4.336-6.776c-13.432-6.608-29.264-7.376-43.032-2.2
			c-17.688-6.704-38.6-3.4-54.088,8.736c-7.4,5.52-13.896,12.784-19.408,21.72l-0.28,0.48c-2.376,0.624-4.568,1.496-6.52,2.312
			c-5.152,2.096-9.592,5.008-12.88,7.312c-3.624,2.528-4.496,7.52-1.968,11.144c1.552,2.224,4.04,3.416,6.56,3.416
			c1.584,0,3.184-0.472,4.576-1.448c1.896-1.328,4.328-2.816,6.92-4.16c-0.032,17.28,4.736,31.816,14.4,43.24
			c3.872,4.576,8.24,8.264,12.744,11.288c-11.52,32,16.664,61.456,17.96,62.776c1.56,1.608,3.64,2.416,5.712,2.416
			c2.008,0,4.016-0.76,5.576-2.272c3.16-3.072,3.232-8.136,0.168-11.304c-0.232-0.24-20.88-23.656-14.92-45.72
			c12.904,5.008,23.968,4,24.744,4c0.112,0,0.216,0,0.328,0c4.264,0,7.792-1.752,7.976-6.048c0.192-4.408-3.232-7.328-7.64-7.528
			c-0.256-0.016-25.824-0.984-40.512-18.44c-8.688-10.32-12.024-24.352-10.016-42.072l0.784-1.248
			c4.344-7.056,9.48-12.768,15.4-17.192c11.768-9.192,28.248-11.4,41-5.488c2.12,0.96,4.56,1,6.688,0.024
			c10.024-4.592,22.544-4.344,32.648,0.632c2.072,1.008,4.344,1.008,6.344,0.256c0.016-0.008,0,0.016,0,0.04v17.08v67.448
			c-2.56-0.928-4.624-2.336-6.216-4.248c-5.416-6.496-4.76-18.032-4.048-21.928c0.808-4.336-2.04-8.504-6.368-9.328
			c-4.336-0.816-8.528,2.024-9.352,6.368c-0.168,0.864-3.904,21.384,7.416,35.056c4.616,5.576,10.864,9.088,18.576,10.592v113.768
			c-4.736-1.16-8.536-3.248-11.264-6.52c-8.568-10.288-5.488-28.176-5.4-28.632c0.816-4.336-2.032-8.504-6.368-9.336
			c-4.36-0.792-8.528,2.024-9.352,6.368c-0.192,1.032-4.664,25.536,8.76,41.76c5.744,6.944,13.712,11.144,23.624,12.712v49.936v48
			v16v75.256l-0.112,0.192c-0.296,0.512-0.656,0.984-1.008,1.472l-0.656,0.936c-1.48,1.904-3.2,3.632-5.056,5.24
			c-9.128-3.168-12.944-17.584-12.944-23.888c0-4.424-3.584-8-8-8c-4.416,0-8,3.576-8,8c0,8.16,3.552,23.088,12.936,32.4
			c-0.608,0.176-1.168,0.44-1.776,0.592c-9.032,2.256-18.712,1.376-26.68-2.496c-3.848-1.784-7.72-4.424-11.512-7.848
			c-1.784-1.608-3.456-3.36-4.944-5.072l-0.616-0.728c-0.584-0.688-1.168-1.368-1.768-2.168l-0.272-0.376
			c-1.888-8.296-10.48-52.52,14.712-75.12c3.288-2.944,3.568-8.008,0.616-11.296c-2.96-3.28-8.008-3.576-11.296-0.608
			c-26.752,23.992-24.16,63.984-21.168,82.568c-2.136-0.248-4.216-0.64-6.064-1.04c-5.368-1.68-9.4-3.52-12.976-6
			c-7.192-4.536-13.656-11.736-19.168-21.336c-9.472-16.776-12.84-38.128-9.272-58.568c0.384-2.192-0.168-4.456-1.52-6.224
			c0.136,0.168,0.296,0.392,0.312,0.392c-0.384-0.776-0.904-1.84-1.824-2.872c-2.928-3.32-7.976-3.64-11.296-0.712
			c-2.76,2.44-3.44,6.36-1.896,9.512c-3.416,23.168,0.744,47.184,11.584,66.392c6.856,11.944,15.112,21.008,24.232,26.76
			c4.656,3.232,10.064,5.76,17.688,8.112c5.08,1.128,10.52,2.112,16.2,1.776c0.312,0.384,0.632,0.76,0.952,1.144l0.648,0.76
			c2.104,2.424,4.256,4.632,6.392,6.552c4.984,4.512,10.208,8.048,15.376,10.44c7.224,3.512,15.256,5.312,23.448,5.312
			c4.648,0,9.336-0.576,13.96-1.744c6.848-1.68,13.184-4.592,18.872-8.416c1.568-0.544,2.84-1.576,3.8-2.904
			c2.168-1.744,4.184-3.656,6.08-5.712c10.696,11.376,27.416,18.792,44.328,18.792c18.08,0,35.44-8.72,48.224-24.08
			c0.688,0.032,1.384,0.048,2.08,0.048c38,0,68.92-38.864,68.92-86.648c0-4.832-0.352-9.776-1.04-14.752
			c14.248-16.4,22.344-39.432,22.344-63.888C420.726,284.19,420.686,282.854,420.622,281.534z M335.534,218.43
			c2.296,3.792,7.224,4.976,10.992,2.696c12.016-7.296,24.104-8.208,34.024-2.6c15.144,8.584,24.096,31.208,23.936,60.544
			c0,0.088,0.048,0.16,0.048,0.248c0,0.096-0.04,0.192-0.032,0.288c0.128,1.952,0.232,3.912,0.232,5.904
			c0,21.88-7.504,42.208-20.592,55.776c-1.776,1.832-2.56,4.408-2.128,6.92c0.936,5.4,1.416,10.768,1.416,15.944
			c0,34.768-18.928,63.688-43.744,69.512c8.024-15.072,17.064-40.096,4.792-62.432c-0.056-0.104-0.168-0.168-0.232-0.272
			c13.016-13.632,23.504-35.816,18.008-71.696c-0.664-4.368-4.768-7.4-9.12-6.696c-4.368,0.664-7.368,4.752-6.696,9.12
			c9.616,62.808-37.856,73.448-39.96,73.88c-4.312,0.872-7.12,5.072-6.264,9.4c0.76,3.808,4.104,6.448,7.84,6.448
			c0.512,0,1.04-0.048,1.56-0.152c0.256-0.056,10.488-2.312,21.968-9.784c10.704,24.48-12.888,55.744-13.136,56.064
			c-0.016,0.016-0.016,0.04-0.024,0.056c-0.016,0.024-0.048,0.04-0.064,0.072c-9.944,13.456-23.848,21.168-38.168,21.168
			c-14.648,0-29.552-7.552-36.32-18.184v-27.28V381.71c9.144-1.096,16.504-4.664,21.712-10.96
			c11.312-13.672,7.576-34.176,7.416-35.048c-0.824-4.336-5.016-7.168-9.352-6.368c-4.344,0.832-7.192,5.016-6.368,9.352
			c0.68,3.584,1.408,15.304-4.024,21.856c-2.192,2.648-5.328,4.288-9.384,5.08v-0.256v-16v-48v-51.152
			c6.312,0.872,11.08,3.224,14.392,7.2c8.568,10.296,5.488,28.184,5.408,28.64c-0.824,4.336,2.032,8.512,6.368,9.336
			c0.496,0.096,1.008,0.144,1.504,0.144c3.768,0,7.128-2.672,7.848-6.504c0.192-1.032,4.664-25.544-8.768-41.768
			c-6.32-7.64-15.4-11.856-26.752-12.976v-116.48c0.576-1.104,0.976-2.304,0.976-3.632s-0.4-2.528-0.976-3.632V37.366v-13.4
			c6.424-4.84,16.096-7.96,25.152-7.96c5.488,0,11.144,1.176,16.36,3.416c2.016,0.856,4.288,0.856,6.304,0
			c21.424-9.184,45.64,1.496,58.92,25.632c1.112,2.016,3.04,3.464,5.296,3.952c25.32,5.552,44.416,35.496,44.416,69.632
			c0,2.976-0.168,5.88-0.44,8.76c-0.144,1.544,0.168,3.104,0.888,4.472c6.288,11.928,9.608,25.92,9.608,40.464
			c0,1.608-0.096,3.168-0.192,5.16c-0.088,1.52,0.264,3.04,1.016,4.376c6.992,12.344,10.68,26.968,10.68,42.264
			c0,9.472-1.408,18.664-4.08,27.168c-4.496-21.832-14.584-38.32-29.368-46.696c-15.168-8.592-33.008-7.576-50.2,2.832
			C334.446,209.734,333.246,214.646,335.534,218.43z"/>
	</g>
</g>
<g>
	<g>
		<path d="M364.742,78.51c-3.272-3-8.328-2.76-11.312,0.48c-23.76,25.904-55.096-0.448-56.496-1.648
			c-3.336-2.888-8.376-2.536-11.28,0.8c-2.896,3.336-2.544,8.392,0.792,11.288c9.008,7.832,25.304,17.016,42.808,17.016
			c0.224,0,0.456-0.032,0.68-0.032c0.16,10.448-1.368,34.424-18.48,38.056c-4.32,0.92-7.08,5.168-6.168,9.496
			c0.808,3.76,4.128,6.336,7.824,6.336c0.544,0,1.112-0.056,1.672-0.168c30.944-6.568,31.624-44.936,31.08-56.776
			c6.664-2.568,13.24-6.848,19.376-13.544C368.222,86.558,368.006,81.494,364.742,78.51z"/>
	</g>
</g>
<g>
</g>
<g>
</g>
<g>
</g>
<g>
</g>
<g>
</g>
<g>
</g>
<g>
</g>
<g>
</g>
<g>
</g>
<g>
</g>
<g>
</g>
<g>
</g>
<g>
</g>
<g>
</g>
<g>
</g>
</svg>
