<?xml version="1.0" encoding="iso-8859-1"?>
<!-- Generator: Adobe Illustrator 19.0.0, SVG Export Plug-In . SVG Version: 6.00 Build 0)  -->
<svg version="1.1" id="Layer_1" xmlns="http://www.w3.org/2000/svg" xmlns:xlink="http://www.w3.org/1999/xlink" x="0px" y="0px"
	 viewBox="0 0 512 512" style="enable-background:new 0 0 512 512;" xml:space="preserve">
<g>
	<g>
		<path d="M412.72,287.727c4.983,0,9.023-4.04,9.023-9.023v-55.324c0-44.442-35.628-80.72-79.82-81.779V94.687
			c22.477-3.837,39.644-23.444,39.644-46.997c0-26.296-21.394-47.69-47.69-47.69H242.34c-4.983,0-9.023,4.04-9.023,9.023
			c0,4.983,4.04,9.023,9.023,9.023h91.536c16.345,0,29.643,13.298,29.643,29.643c0,16.345-13.298,29.643-29.643,29.643H178.123
			c-16.346,0-29.643-13.298-29.643-29.643c0-16.346,13.298-29.643,29.643-29.643h34.141c4.983,0,9.023-4.04,9.023-9.023
			c0-4.983-4.04-9.023-9.023-9.023h-34.141c-26.296,0-47.69,21.394-47.69,47.69c0,23.553,17.167,43.16,39.644,46.997v46.914
			c-44.191,1.057-79.82,37.336-79.82,81.778v228.55c0,33.123,26.947,60.07,60.071,60.07h211.345
			c33.123,0,60.071-26.947,60.071-60.07V308.781c0-4.983-4.04-9.023-9.023-9.023c-4.983,0-9.023,4.04-9.023,9.023V451.93
			c0,23.172-18.852,42.023-42.025,42.023H150.328c-23.172,0-42.025-18.852-42.025-42.023v-228.55
			c0-35.155,28.6-63.755,63.755-63.755h7.042c4.983,0,9.023-4.04,9.023-9.023V95.38h135.752v55.22c0,4.983,4.04,9.023,9.023,9.023
			h7.042c35.155,0,63.755,28.6,63.755,63.755v55.324C403.697,283.687,407.737,287.727,412.72,287.727z"/>
	</g>
</g>
<g>
	<g>
		<path d="M343.665,230.049c-2.826-4.104-8.445-5.14-12.55-2.311c-4.104,2.827-5.138,8.446-2.311,12.55
			c10.161,14.751,15.533,32.058,15.533,50.047v58.641c0,16.376-13.322,29.698-29.81,29.698c-4.983,0-9.023,4.04-9.023,9.023v25.05
			h-99.01v-25.05c0-4.983-4.152-9.023-9.135-9.023c-16.376,0-29.698-13.322-29.698-29.698v-58.641
			c0-48.709,39.628-88.337,88.339-88.337c17.703,0,34.78,5.214,49.384,15.082c4.13,2.789,9.739,1.704,12.529-2.425
			c2.79-4.13,1.704-9.739-2.425-12.529c-17.599-11.889-38.17-18.174-59.488-18.174c-58.66,0-106.384,47.724-106.384,106.384v58.641
			c0,23.254,16.712,42.679,38.833,46.896v25.898c-0.001,4.984,4.039,9.025,9.022,9.025h117.057c4.983,0,9.023-4.04,9.023-9.023
			v-25.885c22.082-4.186,38.833-23.629,38.833-46.911v-58.641C362.385,268.673,355.912,247.827,343.665,230.049z"/>
	</g>
</g>
<g>
	<g>
		<path d="M216.069,294.652c-18.663,0-33.846,15.183-33.846,33.846s15.183,33.846,33.846,33.846
			c18.663,0,33.846-15.183,33.846-33.846S234.731,294.652,216.069,294.652z M216.069,344.297c-8.712,0-15.799-7.088-15.799-15.799
			s7.088-15.799,15.799-15.799s15.799,7.088,15.799,15.799S224.78,344.297,216.069,344.297z"/>
	</g>
</g>
<g>
	<g>
		<path d="M295.932,294.652c-18.663,0-33.846,15.183-33.846,33.846s15.183,33.846,33.846,33.846
			c18.663,0,33.846-15.183,33.846-33.846S314.595,294.652,295.932,294.652z M295.932,344.297c-8.712,0-15.799-7.088-15.799-15.799
			s7.088-15.799,15.799-15.799s15.799,7.088,15.799,15.799S304.644,344.297,295.932,344.297z"/>
	</g>
</g>
<g>
	<g>
		<path d="M256.001,358.326c-4.983,0-9.023,4.04-9.023,9.023v13.871c0,4.983,4.04,9.023,9.023,9.023s9.023-4.04,9.023-9.023V367.35
			C265.024,362.367,260.984,358.326,256.001,358.326z"/>
	</g>
</g>
<g>
</g>
<g>
</g>
<g>
</g>
<g>
</g>
<g>
</g>
<g>
</g>
<g>
</g>
<g>
</g>
<g>
</g>
<g>
</g>
<g>
</g>
<g>
</g>
<g>
</g>
<g>
</g>
<g>
</g>
</svg>
